<svg width="43" height="43" viewBox="0 0 43 43" fill="none" xmlns="http://www.w3.org/2000/svg">
<path d="M32.389 37.6746H21.889C20.4967 37.6746 19.1613 37.1214 18.1767 36.1369C17.1922 35.1523 16.639 33.8169 16.639 32.4246V21.9246C16.639 20.5322 17.1922 19.1968 18.1767 18.2122C19.1613 17.2277 20.4967 16.6746 21.889 16.6746H32.389C33.7814 16.6746 35.1168 17.2277 36.1013 18.2122C37.0859 19.1968 37.639 20.5322 37.639 21.9246V32.4246C37.639 33.8169 37.0859 35.1523 36.1013 36.1369C35.1168 37.1214 33.7814 37.6746 32.389 37.6746ZM21.889 20.1746C21.4249 20.1746 20.9798 20.3589 20.6516 20.6871C20.3234 21.0153 20.139 21.4604 20.139 21.9246V32.4246C20.139 32.8887 20.3234 33.3338 20.6516 33.662C20.9798 33.9902 21.4249 34.1746 21.889 34.1746H32.389C32.8532 34.1746 33.2983 33.9902 33.6265 33.662C33.9547 33.3338 34.139 32.8887 34.139 32.4246V21.9246C34.139 21.4604 33.9547 21.0153 33.6265 20.6871C33.2983 20.3589 32.8532 20.1746 32.389 20.1746H21.889Z" fill="#7A3DDD"/>
<path d="M17.9165 27.1746H10.8115C9.57373 27.17 8.38794 26.6762 7.51267 25.8009C6.63741 24.9257 6.14365 23.7399 6.13904 22.5021V10.8471C6.14365 9.60926 6.63741 8.42346 7.51267 7.5482C8.38794 6.67293 9.57373 6.17917 10.8115 6.17456H22.4665C23.7043 6.17917 24.8901 6.67293 25.7654 7.5482C26.6407 8.42346 27.1344 9.60926 27.139 10.8471V17.3746H23.639V10.8471C23.639 10.5361 23.5155 10.2379 23.2956 10.018C23.0757 9.79809 22.7775 9.67456 22.4665 9.67456H10.8115C10.5006 9.67456 10.2023 9.79809 9.98246 10.018C9.76257 10.2379 9.63904 10.5361 9.63904 10.8471V22.5021C9.63904 22.813 9.76257 23.1113 9.98246 23.3311C10.2023 23.551 10.5006 23.6746 10.8115 23.6746H17.9165V27.1746Z" fill="#7A3DDD"/>
</svg>
