<svg width="31" height="31" viewBox="0 0 31 31" fill="none" xmlns="http://www.w3.org/2000/svg">
<path d="M22.139 10.4246H13.389V7.92456C13.389 7.26152 13.6524 6.62563 14.1212 6.15679C14.5901 5.68795 15.2259 5.42456 15.889 5.42456C16.552 5.42456 17.1879 5.68795 17.6567 6.15679C18.1256 6.62563 18.389 7.26152 18.389 7.92456C18.389 8.25608 18.5207 8.57402 18.7551 8.80844C18.9895 9.04286 19.3075 9.17456 19.639 9.17456C19.9705 9.17456 20.2884 9.04286 20.5229 8.80844C20.7573 8.57402 20.889 8.25608 20.889 7.92456C20.889 6.59848 20.3622 5.32671 19.4245 4.38903C18.4868 3.45134 17.2151 2.92456 15.889 2.92456C14.5629 2.92456 13.2911 3.45134 12.3534 4.38903C11.4158 5.32671 10.889 6.59848 10.889 7.92456V10.4246H9.63898C8.64442 10.4246 7.69059 10.8196 6.98733 11.5229C6.28407 12.2262 5.88898 13.18 5.88898 14.1746V24.1746C5.88898 25.1691 6.28407 26.123 6.98733 26.8262C7.69059 27.5295 8.64442 27.9246 9.63898 27.9246H22.139C23.1335 27.9246 24.0874 27.5295 24.7906 26.8262C25.4939 26.123 25.889 25.1691 25.889 24.1746V14.1746C25.889 13.18 25.4939 12.2262 24.7906 11.5229C24.0874 10.8196 23.1335 10.4246 22.139 10.4246ZM23.389 24.1746C23.389 24.5061 23.2573 24.824 23.0229 25.0584C22.7884 25.2929 22.4705 25.4246 22.139 25.4246H9.63898C9.30746 25.4246 8.98951 25.2929 8.75509 25.0584C8.52067 24.824 8.38898 24.5061 8.38898 24.1746V14.1746C8.38898 13.843 8.52067 13.5251 8.75509 13.2907C8.98951 13.0563 9.30746 12.9246 9.63898 12.9246H22.139C22.4705 12.9246 22.7884 13.0563 23.0229 13.2907C23.2573 13.5251 23.389 13.843 23.389 14.1746V24.1746Z" fill="#7A3DDD"/>
<path d="M15.889 15.4246C15.1473 15.4246 14.4223 15.6445 13.8056 16.0565C13.1889 16.4686 12.7083 17.0543 12.4244 17.7395C12.1406 18.4247 12.0663 19.1787 12.211 19.9061C12.3557 20.6336 12.7129 21.3018 13.2373 21.8262C13.7618 22.3507 14.43 22.7078 15.1574 22.8525C15.8848 22.9972 16.6388 22.9229 17.324 22.6391C18.0093 22.3553 18.5949 21.8746 19.007 21.2579C19.419 20.6413 19.639 19.9162 19.639 19.1746C19.639 18.18 19.2439 17.2262 18.5406 16.5229C17.8374 15.8196 16.8835 15.4246 15.889 15.4246ZM15.889 20.4246C15.6418 20.4246 15.4001 20.3512 15.1945 20.2139C14.989 20.0765 14.8287 19.8813 14.7341 19.6529C14.6395 19.4245 14.6148 19.1732 14.663 18.9307C14.7112 18.6882 14.8303 18.4655 15.0051 18.2907C15.1799 18.1159 15.4026 17.9968 15.6451 17.9486C15.8876 17.9003 16.1389 17.9251 16.3673 18.0197C16.5957 18.1143 16.791 18.2745 16.9283 18.4801C17.0657 18.6857 17.139 18.9273 17.139 19.1746C17.139 19.5061 17.0073 19.824 16.7729 20.0584C16.5384 20.2929 16.2205 20.4246 15.889 20.4246Z" fill="#7A3DDD"/>
</svg>
