<svg width="9" height="16" viewBox="0 0 9 16" fill="none" xmlns="http://www.w3.org/2000/svg">
<path d="M1.78735 15.7157C1.52843 15.7162 1.2775 15.626 1.07813 15.4608C0.965922 15.3678 0.873168 15.2535 0.80518 15.1246C0.737193 14.9956 0.695308 14.8546 0.681926 14.7094C0.668544 14.5643 0.683928 14.4179 0.727195 14.2787C0.770463 14.1396 0.840763 14.0103 0.934072 13.8983L5.89862 7.95857L1.11138 2.00776C1.01933 1.89441 0.950587 1.76399 0.909107 1.62398C0.867627 1.48398 0.854225 1.33716 0.869672 1.19196C0.885118 1.04676 0.929109 0.906042 0.999115 0.777898C1.06912 0.649754 1.16376 0.53671 1.2776 0.445261C1.39226 0.344379 1.52653 0.268284 1.67199 0.221754C1.81745 0.175223 1.97095 0.159262 2.12288 0.17487C2.2748 0.190478 2.42185 0.23732 2.55481 0.312455C2.68777 0.38759 2.80376 0.489396 2.89551 0.611485L8.24791 7.26043C8.4109 7.45871 8.5 7.70743 8.5 7.96411C8.5 8.22078 8.4109 8.4695 8.24791 8.66779L2.70712 15.3167C2.59596 15.4508 2.45474 15.5568 2.29493 15.6262C2.13513 15.6955 1.96123 15.7261 1.78735 15.7157Z" fill="white"/>
</svg>
